# xmcd
#
# Track frame offsets:
#	150
#	15290
#	32023
#	49610
#	67490
#	84118
#	100093
#	120803
#	137305
#	151555
#	168178
#	185365
#	202700
#	219745
#
# Disc length: 3190 seconds
#
# Revision: 1
# Processed by: cddbd v1.5.1PL0 Copyright (c) Steve Scherf et al.
# Submitted via: CDex 1.50Beta5
#
DISCID=9b0c740e
DTITLE=さまざまなアーティスト - Crystal Dew Christmas
DYEAR=1900
DGENRE=Pop
TTITLE0=山下達郎/クリスマス・イヴ
TTITLE1=松任谷由実/ロッジで待つクリスマス
TTITLE2=杏里/Christmas Calendar
TTITLE3=杉山清貴/最後のHoly Night
TTITLE4=岡村孝子/クリスマスの夜
TTITLE5=桑田佳祐/シャ・ラ・ラ
TTITLE6=尾崎亜美/一人ぼっちのクリスマスソング
TTITLE7=松任谷由実/恋人がサンタクロース
TTITLE8=松山千春/粉雪
TTITLE9=EPO/12月のエイプリル・フール
TTITLE10=徳永英明/ノースリーブのクリスマス
TTITLE11=久保田利伸/FOR YOU
TTITLE12=浜田省吾/Midnight Flight〜一人ぼっちのクリスマス・イヴ〜
TTITLE13=桑田佳祐/MerryX'Mas in Summer
EXTD=
EXTT0=
EXTT1=
EXTT2=
EXTT3=
EXTT4=
EXTT5=
EXTT6=
EXTT7=
EXTT8=
EXTT9=
EXTT10=
EXTT11=
EXTT12=
EXTT13=
PLAYORDER=
